<?xml version="1.0" encoding="utf-8"?>
<!-- Generator: Adobe Illustrator 15.0.0, SVG Export Plug-In . SVG Version: 6.00 Build 0)  -->
<!DOCTYPE svg PUBLIC "-//W3C//DTD SVG 1.1//EN" "http://www.w3.org/Graphics/SVG/1.1/DTD/svg11.dtd">
<svg version="1.1" id="Highest_1_" xmlns="http://www.w3.org/2000/svg" xmlns:xlink="http://www.w3.org/1999/xlink" x="0px" y="0px"
	 width="595.279px" height="841.891px" viewBox="0 0 595.279 841.891" enable-background="new 0 0 595.279 841.891"
	 xml:space="preserve">
<path fill="#7F00FF" d="M297.64,643.831L297.64,643.831c20.463,0,37.205-16.742,37.205-37.205V235.264
	c0-20.463-16.742-37.205-37.205-37.205l0,0c-20.463,0-37.205,16.742-37.205,37.205v371.362
	C260.435,627.089,277.177,643.831,297.64,643.831z"/>
<path fill="#7F00FF" d="M461.277,398.901L461.277,398.901c14.473-14.473,14.473-38.145,0-52.618l-137.37-137.37
	c-14.473-14.473-38.145-14.473-52.617,0l0,0c-14.473,14.473-14.473,38.145,0,52.617l137.37,137.371
	C423.123,413.364,446.804,413.364,461.277,398.901z"/>
<path fill="#7F00FF" d="M132.459,398.901L132.459,398.901c-14.473-14.473-14.473-38.145,0-52.618l137.37-137.37
	c14.473-14.473,38.145-14.473,52.617,0l0,0c14.473,14.473,14.473,38.145,0,52.617l-137.38,137.371
	C170.604,413.364,146.922,413.364,132.459,398.901z"/>
</svg>
